<?xml version="1.0" encoding="UTF-8"?>
<!DOCTYPE svg PUBLIC "-//W3C//DTD SVG 1.1//EN" "http://www.w3.org/Graphics/SVG/1.1/DTD/svg11.dtd">
<!-- Creator: CorelDRAW -->
<svg xmlns="http://www.w3.org/2000/svg" xml:space="preserve" width="245.788mm" height="73.3222mm" version="1.1" style="shape-rendering:geometricPrecision; text-rendering:geometricPrecision; image-rendering:optimizeQuality; fill-rule:evenodd; clip-rule:evenodd"
viewBox="0 0 25429.86 7586.11"
 xmlns:xlink="http://www.w3.org/1999/xlink"
 xmlns:xodm="http://www.corel.com/coreldraw/odm/2003">
 <defs>
  <style type="text/css">
   <![CDATA[
    .fil0 {fill:none}
    .fil1 {fill:#848484;fill-rule:nonzero}
    .fil2 {fill:#BC1CFF;fill-rule:nonzero}
   ]]>
  </style>
 </defs>
 <g id="Camada_x0020_1">
  <metadata id="CorelCorpID_0Corel-Layer"/>
  <rect class="fil0" x="-0" width="25429.86" height="7586.11"/>
  <g id="_2738918275952">
   <path class="fil1" d="M288.81 1821.34c-85.71,0 -155.19,-69.49 -155.19,-155.19 0,-85.71 69.49,-155.19 155.19,-155.19l1179.8 0c506.37,0 966.6,207.05 1300.16,540.61 333.56,333.56 540.61,793.82 540.61,1300.16 0,506.38 -207.05,966.61 -540.61,1300.17 -333.56,333.56 -793.8,540.61 -1300.16,540.61l-1179.8 0c-85.71,0 -155.19,-69.49 -155.19,-155.19 0,-85.71 69.49,-155.19 155.19,-155.19l1179.8 0c420.7,0 803.26,-172.21 1080.72,-449.67 277.46,-277.46 449.67,-660.02 449.67,-1080.72 0,-420.7 -172.21,-803.27 -449.67,-1080.73 -277.46,-277.46 -660.02,-449.67 -1080.72,-449.67l-1179.8 0z"/>
   <path class="fil1" d="M4056.54 1821.36c-85.71,0 -155.19,-69.49 -155.19,-155.19 0,-85.71 69.49,-155.19 155.19,-155.19l2812.39 0c85.71,0 155.19,69.49 155.19,155.19 0,85.71 -69.49,155.19 -155.19,155.19l-2812.39 0z"/>
   <path class="fil1" d="M4056.54 5192.49c-85.71,0 -155.19,-69.49 -155.19,-155.19 0,-85.71 69.49,-155.19 155.19,-155.19l2812.39 0c85.71,0 155.19,69.49 155.19,155.19 0,85.71 -69.49,155.19 -155.19,155.19l-2812.39 0z"/>
   <path class="fil1" d="M4056.54 3506.93c-85.71,0 -155.19,-69.49 -155.19,-155.19 0,-85.71 69.49,-155.19 155.19,-155.19l2812.39 0c85.71,0 155.19,69.49 155.19,155.19 0,85.71 -69.49,155.19 -155.19,155.19l-2812.39 0z"/>
   <path class="fil1" d="M10384.8 4882.13c85.71,0 155.19,69.49 155.19,155.19 0,85.71 -69.49,155.19 -155.19,155.19l-987.24 0c-498.01,0 -950.73,-203.67 -1278.83,-531.78 -328.09,-328.09 -531.77,-780.77 -531.77,-1278.82l0 -1715.77c0,-85.71 69.49,-155.19 155.19,-155.19 85.71,0 155.19,69.49 155.19,155.19l0 1715.77c0,412.37 168.84,787.39 440.82,1059.38 271.99,271.99 647.04,440.83 1059.39,440.83l987.24 0z"/>
   <path class="fil1" d="M11154.2 1666.14c0,-85.71 69.49,-155.19 155.19,-155.19 85.71,0 155.19,69.49 155.19,155.19l0 922.56c0,85.71 -69.49,155.19 -155.19,155.19 -85.71,0 -155.19,-69.49 -155.19,-155.19l0 -922.56zm0 1646.68c0,-85.71 69.49,-155.19 155.19,-155.19 85.71,0 155.19,69.49 155.19,155.19l0 1724.5c0,85.71 -69.49,155.19 -155.19,155.19 -85.71,0 -155.19,-69.49 -155.19,-155.19l0 -1724.5z"/>
   <path class="fil1" d="M14911.09 1666.14c0,-85.71 69.49,-155.19 155.19,-155.19 85.71,0 155.19,69.49 155.19,155.19l0 1715.77c0,498.05 -203.68,950.73 -531.77,1278.82 -328.1,328.11 -780.82,531.78 -1278.83,531.78l-1157.85 0c-85.71,0 -155.19,-69.49 -155.19,-155.19l0 -3371.18c0,-85.71 69.49,-155.19 155.19,-155.19 85.71,0 155.19,69.49 155.19,155.19l0 3215.98 1002.66 0c412.35,0 787.39,-168.84 1059.39,-440.83 271.98,-271.98 440.82,-647 440.82,-1059.38l0 -1715.77z"/>
   <path class="fil1" d="M17682.88 1510.93c506.37,0 966.61,207.06 1300.17,540.62 333.56,333.57 540.62,793.82 540.62,1300.2 0,506.37 -207.06,966.61 -540.62,1300.17 -333.56,333.56 -793.81,540.62 -1300.17,540.62 -506.38,0 -966.62,-207.06 -1300.2,-540.62 -333.56,-333.56 -540.62,-793.81 -540.62,-1300.17 0,-506.39 207.06,-966.63 540.62,-1300.2 333.56,-333.57 793.83,-540.62 1300.2,-540.62zm1080.73 760.07c-277.46,-277.46 -660.03,-449.68 -1080.73,-449.68 -420.71,0 -803.31,172.22 -1080.75,449.68 -277.46,277.46 -449.68,660.04 -449.68,1080.75 0,420.7 172.22,803.27 449.68,1080.73 277.46,277.45 660.05,449.68 1080.75,449.68 420.7,0 803.27,-172.22 1080.73,-449.68 277.46,-277.46 449.68,-660.03 449.68,-1080.73 0,-420.7 -172.22,-803.28 -449.68,-1080.75z"/>
  </g>
  <g id="_2738918276912">
   <path class="fil2" d="M19108.72 7465.01c54.64,-22.41 104.14,-48.47 179.64,-95.47 59.73,-36.38 377.16,-267.86 476.07,-346.44 51.94,-41.06 132.76,-104.41 179.58,-140.34 153.42,-117.81 277.58,-218.99 520.53,-422.62 63.31,-53.68 151.56,-126.78 195.65,-162.94 169.24,-138.05 212.57,-175.88 589.75,-516.64 213.35,-192.63 401.36,-361.86 418.45,-376.37 47.14,-39.1 106.48,-89.93 194.22,-167.08 105.99,-93.98 213.62,-186.2 304.84,-261.45 41.12,-34.02 109.38,-91.26 150.58,-126.08 166.74,-140.67 413.69,-338.33 653.8,-522.98 151.26,-114.8 594.16,-432.94 698.32,-499.83 51.05,-32.34 150.42,-97.25 221.29,-143.86 129.93,-85.44 261.2,-165.96 354.58,-216.98 27.26,-15.22 77.99,-44.38 112.19,-64.58 143.67,-85.04 194.41,-114.19 258.52,-148.57 136.18,-74.48 313.27,-162.96 465.52,-232.81 85.79,-39.69 161.25,-77.07 168.26,-82.86 11.06,-9.44 9.73,-14.36 -7.29,-27.88 -11.87,-9.86 -147.27,-79.52 -301.31,-155.63 -154.06,-76.12 -308.02,-153.02 -341.27,-169.58 -34.07,-17.44 -81.33,-40.85 -104.88,-53.35 -24.54,-11.78 -59.53,-29.3 -79.6,-39.88 -19.23,-9.72 -37.64,-18.55 -41.28,-18.87 -2.73,-0.25 -37.72,-17.76 -77.94,-38.14 -114.34,-59.79 -164.25,-84.23 -706.83,-353.33 -281.81,-139.49 -553.02,-274.84 -603.77,-300.16 -50.74,-25.32 -112.01,-55.57 -135.64,-67.27 -24.54,-11.78 -55.97,-28.19 -69.98,-35.03 -14.84,-7.72 -70.05,-34.24 -122.7,-58.92 -53.48,-25.56 -112.18,-53.99 -131.49,-62.91 -19.24,-9.72 -68.33,-33.28 -109.53,-52.94 -41.21,-19.67 -135.89,-64.9 -210.42,-100.33 -74.45,-36.23 -173.6,-82.66 -219.2,-104.31 -45.6,-21.65 -95.59,-45.31 -109.53,-52.94 -49.83,-25.24 -155.95,-75.49 -292.99,-138.08 -75.6,-33.92 -170.36,-78.35 -211.64,-97.22 -41.29,-18.87 -189.76,-86.48 -329.45,-150.11 -140.61,-63.7 -262.64,-120.16 -272.25,-125.01 -14.85,-7.73 -559.04,-242.52 -717.7,-309.43 -117.2,-49.63 -617.97,-241.33 -729.85,-280.06 -122.64,-41.29 -295.55,-85.42 -361.13,-91.22 -165.77,-14.66 -57.09,110.31 258.66,296.06 103.26,60.41 475.33,261.55 604.76,326.67 31.5,15.61 68.23,34.08 83.08,41.8 13.93,7.65 69.14,34.15 122.62,59.72 52.64,24.68 124.36,60.67 159.35,78.18 34.91,18.31 65.59,33.05 68.32,33.28 2.73,0.24 22.13,8.37 42.19,18.95 20.15,9.8 84.07,41.09 141.94,68.64 57.79,28.34 113,54.86 122.62,59.71 27.12,13.62 84.16,40.29 127.26,59.33 91.51,40.14 270.75,121.68 307.55,139.36 21.98,9.95 66.74,30.74 101.06,45.78 33.48,14.18 73.02,32.1 87.87,39.82 69.14,34.15 457.18,204.67 655.38,289.49 70.53,29.48 137.43,58.62 149.7,64.52 12.35,5.1 48.34,21.9 80.91,35.99 149.79,63.72 180.54,77.66 209.56,90.63 63.33,28.04 219.18,95.5 317.06,136.2 55.62,22.54 113.73,47.72 127.75,54.57 14.92,6.92 40.53,17.2 57.51,21.9 16.99,4.71 34.64,11.88 39.78,15.54 4.24,3.58 27.95,14.48 52.81,23.09 23.87,9.32 79.49,31.87 123.5,50.99 43.11,19.03 109.26,46.52 145.48,60.93 36.14,15.22 112.06,45.97 167.6,69.3 55.62,22.54 111.15,45.89 123.59,50.19 12.35,5.1 61.75,25.49 110.24,45.8 48.49,20.31 121.68,50.82 163.21,67.31 68.88,27.72 172.91,71.37 216.01,90.41 29.93,13.06 138.43,57.91 198.52,81.64 31.83,12.43 68.79,28.52 83.72,35.45 13.93,7.65 37.79,16.96 52.96,21.51 14.25,4.46 30.16,10.68 35.31,14.34 4.15,4.37 27.95,14.48 52.72,23.89 23.95,8.53 71.61,27.97 106.01,42.22 33.49,14.17 97.06,39.82 141.15,58.15 43.27,17.44 122.59,50.9 176.31,74.08 52.81,23.09 111.99,46.75 129.96,50.75 21.54,5.11 33.57,13.39 32.93,19.74 -0.64,6.34 -5.76,11.51 -12.14,10.94 -13.66,-1.2 -299.83,93.65 -354.57,116.85 -21.16,9.34 -45.05,18.45 -52.65,20.98 -36.88,10.36 -285.97,110.9 -397.56,160.32 -69.27,30.72 -165.56,74.28 -215.56,96.29 -182.84,81.57 -334.33,153.08 -401.51,190.4 -37.02,20.76 -151.55,81.14 -252.53,134.69 -101.89,53.48 -196.17,104.42 -208.89,112.11 -13.71,8.4 -73.44,44.78 -132.17,80.43 -59.73,36.38 -134.17,81.87 -165.48,100.73 -31.39,19.66 -80.21,48.18 -108.4,63.32 -27.35,16.01 -99.13,62.52 -158.34,102.96 -59.3,41.22 -138.18,94.33 -176.59,119.77 -127.94,84.02 -255.62,174.47 -380.72,266.75 -247.4,184.02 -317.09,237.14 -443.32,340.53 -70.17,57.89 -158.27,129.41 -195.25,158.98 -249.9,199.81 -800.05,706.33 -942.06,866.01 -8.33,9.68 -41.09,42.83 -71.94,75.35 -69.71,71.54 -154.1,161.02 -174.72,183.23 -8.33,9.67 -68.97,73.21 -133.8,141.98 -130.67,138.25 -203,217.57 -325.32,354.97 -75.63,84.63 -219.7,246.54 -250.88,282.24 -7.18,7.38 -22.84,26.02 -34.39,40.22 -11.55,14.21 -33.4,39.51 -47,55.93 -14.52,16.34 -36.52,43.24 -49.22,59.74 -12.69,16.5 -28.36,35.15 -34.63,42.6 -10.4,11.9 -91.99,119.25 -117.78,156.22 -110.17,153.69 -134.15,236.48 -70.4,242.12 10.94,0.97 45.92,-8.75 76.67,-22.06l-0.01 0zm5858.36 -4560.2c2.11,-11.83 22.82,-7.59 26.18,4.72 2.01,7.39 -2.87,10.16 -11.73,6.97 -9.03,-1.6 -14.92,-6.92 -14.44,-11.69l0 0z"/>
   <path class="fil2" d="M19335.29 5997.74c36.78,-15.08 70.1,-32.63 120.92,-64.26 40.21,-24.49 253.88,-180.3 320.46,-233.19 34.96,-27.65 89.37,-70.29 120.89,-94.47 103.27,-79.3 186.84,-147.4 350.38,-284.47 42.62,-36.14 102.01,-85.35 131.69,-109.68 113.92,-92.93 143.09,-118.39 396.98,-347.77 143.61,-129.66 270.16,-243.57 281.67,-253.34 31.73,-26.31 71.68,-60.53 130.74,-112.46 71.34,-63.26 143.79,-125.33 205.2,-175.98 27.68,-22.91 73.62,-61.44 101.35,-84.87 112.25,-94.69 278.46,-227.74 440.09,-352.03 101.82,-77.28 399.95,-291.41 470.05,-336.44 34.36,-21.77 101.25,-65.47 148.96,-96.84 87.46,-57.51 175.81,-111.71 238.67,-146.06 18.35,-10.24 52.5,-29.87 75.53,-43.46 96.71,-57.24 130.85,-76.87 174.01,-100.02 91.66,-50.13 210.87,-109.69 313.35,-156.7 57.75,-26.71 108.54,-51.88 113.26,-55.78 7.45,-6.35 6.55,-9.66 -4.9,-18.77 -7.99,-6.63 -99.14,-53.52 -202.83,-104.76 -103.69,-51.23 -207.33,-103 -229.71,-114.15 -22.94,-11.73 -54.75,-27.49 -70.6,-35.9 -16.52,-7.94 -40.07,-19.72 -53.58,-26.85 -12.94,-6.54 -25.33,-12.49 -27.79,-12.71 -1.83,-0.17 -25.39,-11.95 -52.46,-25.67 -76.97,-40.24 -110.56,-56.7 -475.78,-237.83 -189.69,-93.89 -372.25,-184.99 -406.4,-202.04 -34.15,-17.04 -75.4,-37.4 -91.31,-45.29 -16.52,-7.93 -37.67,-18.96 -47.11,-23.58 -9.98,-5.19 -47.16,-23.04 -82.59,-39.66 -35.99,-17.21 -75.51,-36.34 -88.5,-42.34 -12.95,-6.54 -45.99,-22.41 -73.73,-35.64 -27.73,-13.24 -91.46,-43.68 -141.63,-67.53 -50.12,-24.39 -116.86,-55.63 -147.55,-70.21 -30.7,-14.58 -64.34,-30.5 -73.73,-35.64 -33.54,-16.99 -104.97,-50.81 -197.21,-92.94 -50.89,-22.83 -114.68,-52.75 -142.47,-65.45 -27.79,-12.71 -127.72,-58.21 -221.75,-101.04 -94.64,-42.87 -176.79,-80.88 -183.26,-84.15 -9.98,-5.2 -376.29,-163.24 -483.09,-208.28 -78.9,-33.41 -415.97,-162.44 -491.28,-188.52 -82.55,-27.79 -198.94,-57.49 -243.08,-61.41 -111.58,-9.87 -38.43,74.26 174.11,199.29 69.5,40.66 319.95,176.05 407.07,219.89 21.21,10.5 45.93,22.94 55.92,28.13 9.37,5.14 46.55,22.99 82.54,40.2 35.44,16.62 83.71,40.84 107.26,52.63 23.5,12.32 44.15,22.23 45.99,22.4 1.84,0.17 14.9,5.63 28.4,12.76 13.56,6.59 56.59,27.66 95.55,46.2 38.89,19.08 76.06,36.93 82.53,40.2 18.25,9.17 56.65,27.12 85.67,39.94 61.6,27.01 182.24,81.9 207.02,93.8 14.78,6.7 44.92,20.69 68.02,30.83 22.54,9.54 49.17,21.6 59.16,26.8 46.54,22.99 307.74,137.76 441.14,194.86 47.48,19.84 92.51,39.46 100.77,43.42 8.31,3.43 32.53,14.74 54.46,24.23 100.82,42.9 121.53,52.28 141.05,61.01 42.64,18.87 147.54,64.28 213.42,91.68 37.44,15.18 76.55,32.11 85.99,36.73 10.05,4.66 27.28,11.58 38.72,14.74 11.43,3.17 23.32,8 26.78,10.46 2.86,2.41 18.81,9.75 35.55,15.54 16.07,6.28 53.5,21.46 83.13,34.32 29.02,12.82 73.54,31.31 97.92,41.02 24.33,10.23 75.43,30.94 112.82,46.64 37.44,15.18 74.82,30.88 83.19,33.78 8.31,3.43 41.56,17.16 74.2,30.83 32.64,13.68 81.91,34.2 109.86,45.31 46.36,18.66 116.39,48.05 145.41,60.86 20.14,8.79 93.18,38.97 133.62,54.96 21.43,8.36 46.31,19.19 56.36,23.86 9.37,5.14 25.44,11.41 35.65,14.47 9.59,3.01 20.31,7.19 23.77,9.65 2.8,2.95 18.81,9.76 35.5,16.08 16.12,5.74 48.2,18.83 71.35,28.42 22.54,9.55 65.34,26.82 95.02,39.14 29.12,11.74 82.52,34.27 118.68,49.87 35.54,15.54 75.37,31.47 87.48,34.16 14.5,3.43 22.6,9 22.16,13.28 -0.43,4.27 -3.88,7.74 -8.16,7.37 -9.2,-0.82 -201.84,63.03 -238.67,78.65 -14.25,6.29 -30.32,12.42 -35.45,14.12 -24.83,6.96 -192.49,74.64 -267.6,107.9 -46.63,20.68 -111.45,50 -145.11,64.82 -123.07,54.91 -225.04,103.05 -270.27,128.17 -24.91,13.97 -102,54.61 -169.98,90.65 -68.59,36.01 -132.05,70.29 -140.61,75.47 -9.23,5.66 -49.43,30.14 -88.98,54.14 -40.21,24.49 -90.3,55.1 -111.38,67.81 -21.13,13.22 -54,32.43 -72.96,42.62 -18.41,10.77 -66.73,42.09 -106.59,69.3 -39.92,27.75 -93.01,63.5 -118.87,80.63 -86.12,56.55 -172.06,117.43 -256.27,179.55 -166.53,123.86 -213.44,159.61 -298.41,229.21 -47.23,38.96 -106.53,87.11 -131.43,107.01 -168.22,134.5 -538.52,475.45 -634.12,582.94 -5.61,6.51 -27.66,28.82 -48.42,50.72 -46.92,48.15 -103.72,108.39 -117.61,123.33 -5.61,6.52 -46.42,49.29 -90.06,95.58 -87.95,93.05 -136.64,146.45 -218.97,238.94 -50.91,56.97 -147.89,165.94 -168.88,189.98 -4.82,4.97 -15.37,17.52 -23.14,27.08 -7.77,9.56 -22.47,26.59 -31.64,37.64 -9.77,11 -24.58,29.1 -33.13,40.22 -8.55,11.1 -19.09,23.65 -23.31,28.67 -6.99,8.01 -61.92,80.27 -79.27,105.16 -74.16,103.44 -90.3,159.18 -47.39,162.97 7.36,0.65 30.9,-5.9 51.6,-14.85l0 0zm3943.37 -3069.56c1.43,-7.97 15.36,-5.11 17.62,3.18 1.36,4.98 -1.92,6.84 -7.89,4.7 -6.07,-1.08 -10.05,-4.67 -9.72,-7.87l-0.01 0z"/>
  </g>
 </g>
</svg>
