<svg width="134" height="64" viewBox="0 0 134 64" fill="none" xmlns="http://www.w3.org/2000/svg">
<path d="M117.731 0C118.027 0.204825 118.229 0.486862 118.42 0.788202C121.845 6.19731 125.276 11.6032 128.703 17.0102C128.881 17.2901 129.15 17.5807 128.876 17.9292C128.59 18.2927 128.171 18.371 127.761 18.2209C127.347 18.0686 126.959 17.8402 126.568 17.6279C124.72 16.623 122.878 15.6075 121.028 14.6048C118.563 13.2675 116.088 13.2611 113.621 14.5962C111.535 15.7244 109.457 16.8665 107.379 18.0075C107.093 18.164 106.806 18.3056 106.472 18.2799C105.91 18.237 105.384 17.8359 105.853 17.111C107.759 14.1598 109.627 11.1839 111.509 8.21661C113.075 5.74691 114.646 3.27935 116.208 0.806433C116.397 0.507238 116.598 0.226273 116.873 0L117.731 0Z" fill="#FCA100"/>
<path d="M0.00107238 18.8674C0.027882 18.8427 0.055764 18.8395 0.0857908 18.8609C0.293833 19.0293 0.276675 19.2706 0.277748 19.4969C0.287399 20.7205 0.287399 21.943 0.277748 23.1666C0.275603 23.3928 0.292761 23.6341 0.0879355 23.8046L0.0428954 23.8132L0 23.7982V18.8674H0.00107238Z" fill="#BFBFBF"/>
<path d="M133.063 33.2331L133.02 33.2482L132.975 33.2396C132.682 32.6991 132.682 32.1597 132.975 31.6192C133.005 31.6063 133.035 31.6074 133.063 31.6256V33.2342V33.2331Z" fill="#BEBEBE"/>
<path d="M119.347 63.9067C119.34 63.9378 119.337 63.9689 119.338 64H118.695C118.702 63.9667 118.7 63.9335 118.689 63.9013C118.91 63.7136 119.129 63.7104 119.347 63.9067Z" fill="#FEDF93"/>
<path d="M74.4673 28.1434C74.4266 30.3707 74.5821 33.1246 74.4008 35.871C74.1799 39.22 72.9456 42.0651 70.018 43.9653C68.4555 44.9798 66.6957 45.4109 64.8716 45.6104C62.4834 45.872 60.1188 45.7283 57.8497 44.9037C54.1778 43.5686 52.2218 40.819 51.5783 37.0495C51.41 36.0629 51.3725 35.0645 51.3746 34.0629C51.381 29.1493 51.3767 24.2367 51.3778 19.323C51.3778 18.4437 51.6094 18.2077 52.477 18.2077C54.0856 18.2067 55.6931 18.2045 57.3017 18.2077C58.1896 18.2099 58.4545 18.478 58.4545 19.353C58.4545 24.3911 58.4534 29.4302 58.4556 34.4683C58.4556 35.2211 58.5413 35.9653 58.8009 36.6774C59.4604 38.4833 61.0003 39.4967 63.0014 39.4495C64.9735 39.4034 66.5306 38.2377 67.1183 36.3696C67.3242 35.7166 67.3874 35.0431 67.3874 34.3632C67.3885 29.3605 67.3874 24.3579 67.3874 19.3552C67.3874 18.4265 67.5966 18.2099 68.5113 18.2077C70.1016 18.2045 71.692 18.2045 73.2823 18.2077C74.2346 18.2099 74.4641 18.449 74.4641 19.4206C74.4641 22.1541 74.4641 24.8876 74.4641 28.1445L74.4673 28.1434Z" fill="white"/>
<path d="M90.2272 35.3252C91.8357 30.8608 93.1762 26.3568 94.6786 21.9075C95.0036 20.9466 95.3392 19.989 95.6792 19.0335C95.9087 18.3912 96.166 18.211 96.8856 18.2088C98.7076 18.2024 100.53 18.2013 102.352 18.2088C103.242 18.2131 103.45 18.5424 103.122 19.3981C100.403 26.4726 97.6835 33.5461 94.9628 40.6195C94.5221 41.7659 94.0888 42.9144 93.6309 44.0533C93.1869 45.1589 92.9682 45.293 91.8057 45.293C90.6433 45.293 89.3757 45.2683 88.1618 45.3037C87.5827 45.3198 87.2223 45.1139 86.9854 44.5927C86.2572 42.9863 85.6824 41.3209 85.0508 39.6769C82.4685 32.9509 79.9033 26.2174 77.3328 19.4871C77.3006 19.4035 77.2663 19.322 77.2374 19.2383C76.9693 18.4673 77.1387 18.2121 77.9559 18.2088C79.7961 18.2013 81.6352 18.2035 83.4754 18.2088C84.2433 18.211 84.4577 18.3751 84.7108 19.1279C86.4599 24.3386 88.2068 29.5515 89.958 34.7622C90.0181 34.9402 90.0288 35.1461 90.2261 35.3252H90.2272Z" fill="white"/>
<path d="M0.0889105 23.8049L0.0856934 18.8612C0.185425 18.4022 0.502851 18.2274 0.940384 18.2124C1.08301 18.207 1.22564 18.207 1.36934 18.207C7.62134 18.207 13.8733 18.207 20.1253 18.207C21.2471 18.207 21.4465 18.4033 21.4465 19.4993C21.4465 20.785 21.4487 22.0708 21.4465 23.3566C21.4444 24.1856 21.1473 24.4923 20.3216 24.4944C18.4814 24.4998 16.6422 24.5094 14.802 24.4858C14.3774 24.4805 14.2712 24.5984 14.2723 25.0188C14.2862 31.3588 14.2819 37.6987 14.2819 44.0386C14.2819 45.0703 14.0599 45.2922 13.0326 45.2922C11.4605 45.2922 9.88836 45.2944 8.31732 45.2922C7.4637 45.2912 7.20525 45.0263 7.20525 44.163C7.20525 37.7877 7.19989 31.4113 7.21598 25.036C7.21705 24.5866 7.10552 24.4783 6.66155 24.4848C4.83957 24.5127 3.01759 24.4944 1.19561 24.4976C0.676577 24.4976 0.227248 24.4054 0.0910553 23.8049H0.0889105Z" fill="white"/>
<path d="M117.632 63.2629C117.413 63.2608 117.193 63.2586 116.974 63.2576C116.653 63.1718 116.489 62.9208 116.322 62.6602C112.863 57.204 109.4 51.7487 105.942 46.2924C105.756 45.9997 105.475 45.6983 105.788 45.3316C106.095 44.9745 106.507 44.9659 106.922 45.071C107.09 45.1139 107.245 45.2201 107.401 45.3058C109.437 46.4168 111.474 47.5257 113.507 48.641C116.022 50.0211 118.54 50.0479 121.065 48.6699C123.131 47.5418 125.199 46.4136 127.266 45.2865C127.532 45.1418 127.795 45.0024 128.121 45.0217C128.444 45.041 128.716 45.1278 128.9 45.4067C129.101 45.7091 128.92 45.9493 128.766 46.1916C126.854 49.2061 124.942 52.2206 123.03 55.2351C121.462 57.7069 119.895 60.1777 118.329 62.6517C118.155 62.9273 117.989 63.2029 117.632 63.2661V63.2629Z" fill="#FCA100"/>
<path d="M131.029 29.1719C129.684 21.6556 122.165 16.5435 114.673 18.0459C107.157 19.5537 102.322 26.551 103.559 34.1349C104.777 41.6073 112.031 46.7858 119.527 45.5376C126.047 44.4512 130.792 39.218 131.26 32.596V30.9757C131.185 30.374 131.135 29.7682 131.029 29.173V29.1719ZM124.181 31.7242C124.179 35.425 121.917 38.2239 118.49 38.848C114.719 39.5344 111.105 36.9381 110.554 33.1387C110.169 30.4856 110.769 28.1188 112.789 26.2765C114.75 24.4867 117.094 24.0834 119.566 24.9242C122.09 25.7832 123.511 27.6834 124.053 30.2636C124.161 30.7719 124.196 31.2877 124.181 31.7242Z" fill="white"/>
<path d="M47.9494 44.0462C46.3623 41.0586 44.7859 38.0655 43.1762 35.0907C42.9725 34.7143 43.0765 34.6092 43.3725 34.4066C46.3055 32.3958 47.7575 29.6516 47.4057 26.057C46.9907 21.8253 43.1666 18.279 38.9199 18.2329C34.9532 18.1889 30.9864 18.2114 27.0197 18.2071C26.0556 18.2071 25.8594 18.4044 25.8594 19.361C25.8594 23.5058 25.8594 27.6505 25.8594 31.7953C25.8594 35.9401 25.8594 40.1213 25.8594 44.2832C25.8594 45.0993 26.0492 45.2902 26.8717 45.2923C28.5511 45.2955 30.2315 45.2945 31.9108 45.2923C32.773 45.2913 32.936 45.125 32.936 44.2532C32.936 41.7695 32.9478 39.2859 32.9253 36.8033C32.921 36.3669 33.054 36.2596 33.4647 36.2789C34.1425 36.3111 34.8224 36.3004 35.5012 36.2811C35.7714 36.2736 35.9162 36.3701 36.0406 36.6049C37.4476 39.2655 38.8792 41.9122 40.2615 44.5846C40.5221 45.0875 40.8299 45.3009 41.3757 45.2977C43.3232 45.2848 45.2717 45.2945 47.2191 45.2923C48.1628 45.2913 48.3966 44.887 47.9494 44.0451V44.0462ZM37.2384 30.4141C35.9065 30.5074 34.565 30.4452 33.2277 30.4677C32.9264 30.473 32.9328 30.309 32.9339 30.0966C32.9393 29.1154 32.936 28.1352 32.936 27.154C32.936 26.191 32.9489 25.228 32.9285 24.265C32.921 23.9272 32.9972 23.7964 33.365 23.8082C34.5939 23.85 35.8229 23.7889 37.0529 23.8811C38.7451 24.0076 40.0878 25.3749 40.1189 27.0639C40.1532 28.9127 39.0207 30.2886 37.2384 30.413V30.4141Z" fill="white"/>
</svg>
